<?xml version="1.0" encoding="UTF-8"?>
<svg id="Layer_1" xmlns="http://www.w3.org/2000/svg" version="1.1" viewBox="0 0 374.1 904.3">
  <!-- Generator: Adobe Illustrator 29.3.1, SVG Export Plug-In . SVG Version: 2.1.0 Build 151)  -->
  <defs>
    <style>
      .st0 {
        fill: none;
        stroke: #ffc892;
        stroke-miterlimit: 10;
      }
    </style>
  </defs>
  <polygon class="st0" points="328.8 52.1 358.7 52.1 373.6 26.3 358.7 .5 328.8 .5 313.9 26.3 328.8 52.1"/>
  <polygon class="st0" points="328.8 103.8 358.7 103.8 373.6 78 358.7 52.1 328.8 52.1 313.9 78 328.8 103.8"/>
  <polygon class="st0" points="284 78 313.9 78 328.8 52.1 313.9 26.3 284 26.3 269.1 52.1 284 78"/>
  <polygon class="st0" points="284 129.6 313.9 129.6 328.8 103.8 313.9 78 284 78 269.1 103.8 284 129.6"/>
  <polygon class="st0" points="328.8 155.4 358.7 155.4 373.6 129.6 358.7 103.8 328.8 103.8 313.9 129.6 328.8 155.4"/>
  <polygon class="st0" points="328.8 207.1 358.7 207.1 373.6 181.3 358.7 155.4 328.8 155.4 313.9 181.3 328.8 207.1"/>
  <polygon class="st0" points="284 181.3 313.9 181.3 328.8 155.4 313.9 129.6 284 129.6 269.1 155.4 284 181.3"/>
  <polygon class="st0" points="284 232.9 313.9 232.9 328.8 207.1 313.9 181.3 284 181.3 269.1 207.1 284 232.9"/>
  <polygon class="st0" points="328.8 258.7 358.7 258.7 373.6 232.9 358.7 207.1 328.8 207.1 313.9 232.9 328.8 258.7"/>
  <polygon class="st0" points="328.8 310.4 358.7 310.4 373.6 284.5 358.7 258.7 328.8 258.7 313.9 284.5 328.8 310.4"/>
  <polygon class="st0" points="284 284.5 313.9 284.5 328.8 258.7 313.9 232.9 284 232.9 269.1 258.7 284 284.5"/>
  <polygon class="st0" points="284 336.2 313.9 336.2 328.8 310.4 313.9 284.5 284 284.5 269.1 310.4 284 336.2"/>
  <polygon class="st0" points="239.3 52.1 269.1 52.1 284 26.3 269.1 .5 239.3 .5 224.4 26.3 239.3 52.1"/>
  <polygon class="st0" points="239.3 103.8 269.1 103.8 284 78 269.1 52.1 239.3 52.1 224.4 78 239.3 103.8"/>
  <polygon class="st0" points="194.5 78 224.3 78 239.2 52.1 224.3 26.3 194.5 26.3 179.6 52.1 194.5 78"/>
  <polygon class="st0" points="194.5 129.6 224.3 129.6 239.2 103.8 224.3 78 194.5 78 179.6 103.8 194.5 129.6"/>
  <polygon class="st0" points="239.3 155.4 269.1 155.4 284 129.6 269.1 103.8 239.3 103.8 224.4 129.6 239.3 155.4"/>
  <polygon class="st0" points="239.3 207.1 269.1 207.1 284 181.3 269.1 155.4 239.3 155.4 224.4 181.3 239.3 207.1"/>
  <polygon class="st0" points="194.5 181.3 224.3 181.3 239.2 155.4 224.3 129.6 194.5 129.6 179.6 155.4 194.5 181.3"/>
  <polygon class="st0" points="194.5 232.9 224.3 232.9 239.2 207.1 224.3 181.3 194.5 181.3 179.6 207.1 194.5 232.9"/>
  <polygon class="st0" points="239.3 258.7 269.1 258.7 284 232.9 269.1 207.1 239.3 207.1 224.4 232.9 239.3 258.7"/>
  <polygon class="st0" points="239.3 310.4 269.1 310.4 284 284.5 269.1 258.7 239.3 258.7 224.4 284.5 239.3 310.4"/>
  <polygon class="st0" points="194.5 284.5 224.3 284.5 239.2 258.7 224.3 232.9 194.5 232.9 179.6 258.7 194.5 284.5"/>
  <polygon class="st0" points="194.5 336.2 224.3 336.2 239.2 310.4 224.3 284.5 194.5 284.5 179.6 310.4 194.5 336.2"/>
  <polygon class="st0" points="149.8 52.1 179.6 52.1 194.5 26.3 179.6 .5 149.8 .5 134.9 26.3 149.8 52.1"/>
  <polygon class="st0" points="149.8 103.8 179.6 103.8 194.5 78 179.6 52.1 149.8 52.1 134.9 78 149.8 103.8"/>
  <polygon class="st0" points="105 78 134.8 78 149.7 52.1 134.8 26.3 105 26.3 90.1 52.1 105 78"/>
  <polygon class="st0" points="105 129.6 134.8 129.6 149.7 103.8 134.8 78 105 78 90.1 103.8 105 129.6"/>
  <polygon class="st0" points="149.8 155.4 179.6 155.4 194.5 129.6 179.6 103.8 149.8 103.8 134.9 129.6 149.8 155.4"/>
  <polygon class="st0" points="149.8 207.1 179.6 207.1 194.5 181.3 179.6 155.4 149.8 155.4 134.9 181.3 149.8 207.1"/>
  <polygon class="st0" points="105 181.3 134.8 181.3 149.7 155.4 134.8 129.6 105 129.6 90.1 155.4 105 181.3"/>
  <polygon class="st0" points="105 232.9 134.8 232.9 149.7 207.1 134.8 181.3 105 181.3 90.1 207.1 105 232.9"/>
  <polygon class="st0" points="149.8 258.7 179.6 258.7 194.5 232.9 179.6 207.1 149.8 207.1 134.9 232.9 149.8 258.7"/>
  <polygon class="st0" points="149.8 310.4 179.6 310.4 194.5 284.5 179.6 258.7 149.8 258.7 134.9 284.5 149.8 310.4"/>
  <polygon class="st0" points="105 284.5 134.8 284.5 149.7 258.7 134.8 232.9 105 232.9 90.1 258.7 105 284.5"/>
  <polygon class="st0" points="105 336.2 134.8 336.2 149.7 310.4 134.8 284.5 105 284.5 90.1 310.4 105 336.2"/>
  <polygon class="st0" points="60.3 52.1 90.1 52.1 105 26.3 90.1 .5 60.3 .5 45.4 26.3 60.3 52.1"/>
  <polygon class="st0" points="60.3 103.8 90.1 103.8 105 78 90.1 52.1 60.3 52.1 45.4 78 60.3 103.8"/>
  <polygon class="st0" points="15.5 78 45.3 78 60.2 52.1 45.3 26.3 15.5 26.3 .6 52.1 15.5 78"/>
  <polygon class="st0" points="15.5 129.6 45.3 129.6 60.2 103.8 45.3 78 15.5 78 .6 103.8 15.5 129.6"/>
  <polygon class="st0" points="60.3 155.4 90.1 155.4 105 129.6 90.1 103.8 60.3 103.8 45.4 129.6 60.3 155.4"/>
  <polygon class="st0" points="60.3 207.1 90.1 207.1 105 181.3 90.1 155.4 60.3 155.4 45.4 181.3 60.3 207.1"/>
  <polygon class="st0" points="15.5 181.3 45.3 181.3 60.2 155.4 45.3 129.6 15.5 129.6 .6 155.4 15.5 181.3"/>
  <polygon class="st0" points="15.5 232.9 45.3 232.9 60.2 207.1 45.3 181.3 15.5 181.3 .6 207.1 15.5 232.9"/>
  <polygon class="st0" points="60.3 258.7 90.1 258.7 105 232.9 90.1 207.1 60.3 207.1 45.4 232.9 60.3 258.7"/>
  <polygon class="st0" points="60.3 310.4 90.1 310.4 105 284.5 90.1 258.7 60.3 258.7 45.4 284.5 60.3 310.4"/>
  <polygon class="st0" points="15.5 284.5 45.3 284.5 60.2 258.7 45.3 232.9 15.5 232.9 .6 258.7 15.5 284.5"/>
  <polygon class="st0" points="15.5 336.2 45.3 336.2 60.2 310.4 45.3 284.5 15.5 284.5 .6 310.4 15.5 336.2"/>
  <polygon class="st0" points="328.8 362 358.7 362 373.6 336.2 358.7 310.4 328.8 310.4 313.9 336.2 328.8 362"/>
  <polygon class="st0" points="328.8 413.6 358.7 413.6 373.6 387.8 358.7 362 328.8 362 313.9 387.8 328.8 413.6"/>
  <polygon class="st0" points="284 387.8 313.9 387.8 328.8 362 313.9 336.2 284 336.2 269.1 362 284 387.8"/>
  <polygon class="st0" points="284 439.5 313.9 439.5 328.8 413.6 313.9 387.8 284 387.8 269.1 413.6 284 439.5"/>
  <polygon class="st0" points="328.8 465.3 358.7 465.3 373.6 439.5 358.7 413.6 328.8 413.6 313.9 439.5 328.8 465.3"/>
  <polygon class="st0" points="328.8 516.9 358.7 516.9 373.6 491.1 358.7 465.3 328.8 465.3 313.9 491.1 328.8 516.9"/>
  <polygon class="st0" points="284 491.1 313.9 491.1 328.8 465.3 313.9 439.5 284 439.5 269.1 465.3 284 491.1"/>
  <polygon class="st0" points="284 542.8 313.9 542.8 328.8 516.9 313.9 491.1 284 491.1 269.1 516.9 284 542.8"/>
  <polygon class="st0" points="328.8 568.6 358.7 568.6 373.6 542.8 358.7 516.9 328.8 516.9 313.9 542.8 328.8 568.6"/>
  <polygon class="st0" points="328.8 620.2 358.7 620.2 373.6 594.4 358.7 568.6 328.8 568.6 313.9 594.4 328.8 620.2"/>
  <polygon class="st0" points="284 594.4 313.9 594.4 328.8 568.6 313.9 542.8 284 542.8 269.1 568.6 284 594.4"/>
  <polygon class="st0" points="284 646 313.9 646 328.8 620.2 313.9 594.4 284 594.4 269.1 620.2 284 646"/>
  <polygon class="st0" points="239.3 362 269.1 362 284 336.2 269.1 310.4 239.3 310.4 224.4 336.2 239.3 362"/>
  <polygon class="st0" points="239.3 413.6 269.1 413.6 284 387.8 269.1 362 239.3 362 224.4 387.8 239.3 413.6"/>
  <polygon class="st0" points="194.5 387.8 224.3 387.8 239.2 362 224.3 336.2 194.5 336.2 179.6 362 194.5 387.8"/>
  <polygon class="st0" points="194.5 439.5 224.3 439.5 239.2 413.6 224.3 387.8 194.5 387.8 179.6 413.6 194.5 439.5"/>
  <polygon class="st0" points="239.3 465.3 269.1 465.3 284 439.5 269.1 413.6 239.3 413.6 224.4 439.5 239.3 465.3"/>
  <polygon class="st0" points="239.3 516.9 269.1 516.9 284 491.1 269.1 465.3 239.3 465.3 224.4 491.1 239.3 516.9"/>
  <polygon class="st0" points="194.5 491.1 224.3 491.1 239.2 465.3 224.3 439.5 194.5 439.5 179.6 465.3 194.5 491.1"/>
  <polygon class="st0" points="194.5 542.8 224.3 542.8 239.2 516.9 224.3 491.1 194.5 491.1 179.6 516.9 194.5 542.8"/>
  <polygon class="st0" points="239.3 568.6 269.1 568.6 284 542.8 269.1 516.9 239.3 516.9 224.4 542.8 239.3 568.6"/>
  <polygon class="st0" points="239.3 620.2 269.1 620.2 284 594.4 269.1 568.6 239.3 568.6 224.4 594.4 239.3 620.2"/>
  <polygon class="st0" points="194.5 594.4 224.3 594.4 239.2 568.6 224.3 542.8 194.5 542.8 179.6 568.6 194.5 594.4"/>
  <polygon class="st0" points="194.5 646 224.3 646 239.2 620.2 224.3 594.4 194.5 594.4 179.6 620.2 194.5 646"/>
  <polygon class="st0" points="149.8 362 179.6 362 194.5 336.2 179.6 310.4 149.8 310.4 134.9 336.2 149.8 362"/>
  <polygon class="st0" points="149.8 413.6 179.6 413.6 194.5 387.8 179.6 362 149.8 362 134.9 387.8 149.8 413.6"/>
  <polygon class="st0" points="105 387.8 134.8 387.8 149.7 362 134.8 336.2 105 336.2 90.1 362 105 387.8"/>
  <polygon class="st0" points="105 439.5 134.8 439.5 149.7 413.6 134.8 387.8 105 387.8 90.1 413.6 105 439.5"/>
  <polygon class="st0" points="149.8 465.3 179.6 465.3 194.5 439.5 179.6 413.6 149.8 413.6 134.9 439.5 149.8 465.3"/>
  <polygon class="st0" points="149.8 516.9 179.6 516.9 194.5 491.1 179.6 465.3 149.8 465.3 134.9 491.1 149.8 516.9"/>
  <polygon class="st0" points="105 491.1 134.8 491.1 149.7 465.3 134.8 439.5 105 439.5 90.1 465.3 105 491.1"/>
  <polygon class="st0" points="105 542.8 134.8 542.8 149.7 516.9 134.8 491.1 105 491.1 90.1 516.9 105 542.8"/>
  <polygon class="st0" points="149.8 568.6 179.6 568.6 194.5 542.8 179.6 516.9 149.8 516.9 134.9 542.8 149.8 568.6"/>
  <polygon class="st0" points="149.8 620.2 179.6 620.2 194.5 594.4 179.6 568.6 149.8 568.6 134.9 594.4 149.8 620.2"/>
  <polygon class="st0" points="105 594.4 134.8 594.4 149.7 568.6 134.8 542.8 105 542.8 90.1 568.6 105 594.4"/>
  <polygon class="st0" points="105 646 134.8 646 149.7 620.2 134.8 594.4 105 594.4 90.1 620.2 105 646"/>
  <polygon class="st0" points="60.3 362 90.1 362 105 336.2 90.1 310.4 60.3 310.4 45.4 336.2 60.3 362"/>
  <polygon class="st0" points="60.3 413.6 90.1 413.6 105 387.8 90.1 362 60.3 362 45.4 387.8 60.3 413.6"/>
  <polygon class="st0" points="15.5 387.8 45.3 387.8 60.2 362 45.3 336.2 15.5 336.2 .6 362 15.5 387.8"/>
  <polygon class="st0" points="15.5 439.5 45.3 439.5 60.2 413.6 45.3 387.8 15.5 387.8 .6 413.6 15.5 439.5"/>
  <polygon class="st0" points="60.3 465.3 90.1 465.3 105 439.5 90.1 413.6 60.3 413.6 45.4 439.5 60.3 465.3"/>
  <polygon class="st0" points="60.3 516.9 90.1 516.9 105 491.1 90.1 465.3 60.3 465.3 45.4 491.1 60.3 516.9"/>
  <polygon class="st0" points="15.5 491.1 45.3 491.1 60.2 465.3 45.3 439.5 15.5 439.5 .6 465.3 15.5 491.1"/>
  <polygon class="st0" points="15.5 542.8 45.3 542.8 60.2 516.9 45.3 491.1 15.5 491.1 .6 516.9 15.5 542.8"/>
  <polygon class="st0" points="60.3 568.6 90.1 568.6 105 542.8 90.1 516.9 60.3 516.9 45.4 542.8 60.3 568.6"/>
  <polygon class="st0" points="60.3 620.2 90.1 620.2 105 594.4 90.1 568.6 60.3 568.6 45.4 594.4 60.3 620.2"/>
  <polygon class="st0" points="15.5 594.4 45.3 594.4 60.2 568.6 45.3 542.8 15.5 542.8 .6 568.6 15.5 594.4"/>
  <polygon class="st0" points="15.5 646 45.3 646 60.2 620.2 45.3 594.4 15.5 594.4 .6 620.2 15.5 646"/>
  <polygon class="st0" points="328.8 671.9 358.7 671.9 373.6 646 358.7 620.2 328.8 620.2 313.9 646 328.8 671.9"/>
  <polygon class="st0" points="284 697.7 313.9 697.7 328.8 671.9 313.9 646 284 646 269.1 671.9 284 697.7"/>
  <polygon class="st0" points="328.8 723.5 358.7 723.5 373.6 697.7 358.7 671.9 328.8 671.9 313.9 697.7 328.8 723.5"/>
  <polygon class="st0" points="328.8 775.2 358.7 775.2 373.6 749.3 358.7 723.5 328.8 723.5 313.9 749.3 328.8 775.2"/>
  <polygon class="st0" points="284 749.3 313.9 749.3 328.8 723.5 313.9 697.7 284 697.7 269.1 723.5 284 749.3"/>
  <polygon class="st0" points="284 801 313.9 801 328.8 775.2 313.9 749.3 284 749.3 269.1 775.2 284 801"/>
  <polygon class="st0" points="328.8 826.8 358.7 826.8 373.6 801 358.7 775.2 328.8 775.2 313.9 801 328.8 826.8"/>
  <polygon class="st0" points="328.8 878.4 358.7 878.4 373.6 852.6 358.7 826.8 328.8 826.8 313.9 852.6 328.8 878.4"/>
  <polygon class="st0" points="284 852.6 313.9 852.6 328.8 826.8 313.9 801 284 801 269.1 826.8 284 852.6"/>
  <polygon class="st0" points="284 904.3 313.9 904.3 328.8 878.4 313.9 852.6 284 852.6 269.1 878.4 284 904.3"/>
  <polygon class="st0" points="239.3 671.9 269.1 671.9 284 646 269.1 620.2 239.3 620.2 224.4 646 239.3 671.9"/>
  <polygon class="st0" points="194.5 697.7 224.3 697.7 239.2 671.9 224.3 646 194.5 646 179.6 671.9 194.5 697.7"/>
  <polygon class="st0" points="239.3 723.5 269.1 723.5 284 697.7 269.1 671.9 239.3 671.9 224.4 697.7 239.3 723.5"/>
  <polygon class="st0" points="239.3 775.2 269.1 775.2 284 749.3 269.1 723.5 239.3 723.5 224.4 749.3 239.3 775.2"/>
  <polygon class="st0" points="194.5 749.3 224.3 749.3 239.2 723.5 224.3 697.7 194.5 697.7 179.6 723.5 194.5 749.3"/>
  <polygon class="st0" points="194.5 801 224.3 801 239.2 775.2 224.3 749.3 194.5 749.3 179.6 775.2 194.5 801"/>
  <polygon class="st0" points="239.3 826.8 269.1 826.8 284 801 269.1 775.2 239.3 775.2 224.4 801 239.3 826.8"/>
  <polygon class="st0" points="239.3 878.4 269.1 878.4 284 852.6 269.1 826.8 239.3 826.8 224.4 852.6 239.3 878.4"/>
  <polygon class="st0" points="194.5 852.6 224.3 852.6 239.2 826.8 224.3 801 194.5 801 179.6 826.8 194.5 852.6"/>
  <polygon class="st0" points="194.5 904.3 224.3 904.3 239.2 878.4 224.3 852.6 194.5 852.6 179.6 878.4 194.5 904.3"/>
  <polygon class="st0" points="149.8 671.9 179.6 671.9 194.5 646 179.6 620.2 149.8 620.2 134.9 646 149.8 671.9"/>
  <polygon class="st0" points="105 697.7 134.8 697.7 149.7 671.9 134.8 646 105 646 90.1 671.9 105 697.7"/>
  <polygon class="st0" points="149.8 723.5 179.6 723.5 194.5 697.7 179.6 671.9 149.8 671.9 134.9 697.7 149.8 723.5"/>
  <polygon class="st0" points="149.8 775.2 179.6 775.2 194.5 749.3 179.6 723.5 149.8 723.5 134.9 749.3 149.8 775.2"/>
  <polygon class="st0" points="105 749.3 134.8 749.3 149.7 723.5 134.8 697.7 105 697.7 90.1 723.5 105 749.3"/>
  <polygon class="st0" points="105 801 134.8 801 149.7 775.2 134.8 749.3 105 749.3 90.1 775.2 105 801"/>
  <polygon class="st0" points="149.8 826.8 179.6 826.8 194.5 801 179.6 775.2 149.8 775.2 134.9 801 149.8 826.8"/>
  <polygon class="st0" points="149.8 878.4 179.6 878.4 194.5 852.6 179.6 826.8 149.8 826.8 134.9 852.6 149.8 878.4"/>
  <polygon class="st0" points="105 852.6 134.8 852.6 149.7 826.8 134.8 801 105 801 90.1 826.8 105 852.6"/>
  <polygon class="st0" points="105 904.3 134.8 904.3 149.7 878.4 134.8 852.6 105 852.6 90.1 878.4 105 904.3"/>
  <polygon class="st0" points="60.3 671.9 90.1 671.9 105 646 90.1 620.2 60.3 620.2 45.4 646 60.3 671.9"/>
  <polygon class="st0" points="15.5 697.7 45.3 697.7 60.2 671.9 45.3 646 15.5 646 .6 671.9 15.5 697.7"/>
  <polygon class="st0" points="60.3 723.5 90.1 723.5 105 697.7 90.1 671.9 60.3 671.9 45.4 697.7 60.3 723.5"/>
  <polygon class="st0" points="60.3 775.2 90.1 775.2 105 749.3 90.1 723.5 60.3 723.5 45.4 749.3 60.3 775.2"/>
  <polygon class="st0" points="15.5 749.3 45.3 749.3 60.2 723.5 45.3 697.7 15.5 697.7 .6 723.5 15.5 749.3"/>
  <polygon class="st0" points="15.5 801 45.3 801 60.2 775.2 45.3 749.3 15.5 749.3 .6 775.2 15.5 801"/>
  <polygon class="st0" points="60.3 826.8 90.1 826.8 105 801 90.1 775.2 60.3 775.2 45.4 801 60.3 826.8"/>
  <polygon class="st0" points="60.3 878.4 90.1 878.4 105 852.6 90.1 826.8 60.3 826.8 45.4 852.6 60.3 878.4"/>
  <polygon class="st0" points="15.5 852.6 45.3 852.6 60.2 826.8 45.3 801 15.5 801 .6 826.8 15.5 852.6"/>
  <polygon class="st0" points="15.5 904.3 45.3 904.3 60.2 878.4 45.3 852.6 15.5 852.6 .6 878.4 15.5 904.3"/>
</svg>